<svg xmlns="http://www.w3.org/2000/svg" viewBox="0 0 98.023 98.023" style="enable-background:new 0 0 98.023 98.023" xml:space="preserve"><path d="M49.011 8.689c-9.983 0-18.541 6.61-22.158 16.012h44.315C67.553 15.3 58.994 8.689 49.011 8.689z"/><path d="M93.357 48.938H79.496a47.421 47.421 0 0 0 1.348-9.83c4.94-2.967 10.617-8.168 12.028-16.795a4.665 4.665 0 0 0-9.209-1.506c-.759 4.64-3.723 7.724-6.633 9.696H21.009c-2.915-1.974-5.892-5.058-6.65-9.696a4.664 4.664 0 0 0-5.357-3.851 4.665 4.665 0 0 0-3.852 5.357c1.411 8.626 7.087 13.828 12.028 16.795a47.354 47.354 0 0 0 1.348 9.83H4.665a4.666 4.666 0 0 0 0 9.332h17.322a39.081 39.081 0 0 0 4.602 7.083c-6.1 4.571-11.813 12.548-14.584 16.745a4.665 4.665 0 0 0 7.785 5.144c4.624-6.99 10.586-13.596 13.746-15.472 3.796 2.601 8.073 4.261 12.622 4.759V41.297h5.708v35.232c4.543-.498 8.813-2.153 12.608-4.748 3.195 1.89 9.146 8.483 13.76 15.461a4.665 4.665 0 0 0 7.784-5.144c-2.774-4.2-8.473-12.184-14.579-16.751a39.13 39.13 0 0 0 4.596-7.077h17.322a4.666 4.666 0 0 0 0-9.332z"/></svg>