<svg xmlns:xlink="http://www.w3.org/1999/xlink" xmlns="http://www.w3.org/2000/svg" version="1.1" id="Layer_1" x="0px" y="0px" viewBox="0 0 503.322 503.322" style="enable-background:new 0 0 503.322 503.322;" xml:space="preserve" width="503.322"  height="503.322" >
                                    <g>
                                    <path fill="#0B444D" opacity="0.3" d="M295.051,34.712V17.356C295.051,7.81,287.241,0,277.695,0h-52.068  c-9.546,0-17.356,7.81-17.356,17.356v17.356h-34.712c-5.207,0-8.678,3.471-8.678,8.678v60.746c0,5.207,3.471,8.678,8.678,8.678  h156.203c5.207,0,8.678-3.471,8.678-8.678V43.39c0-5.207-3.471-8.678-8.678-8.678H295.051z"></path>
                                    <path fill="#0B444D" d="M338.441,60.746v43.39c0,5.207-3.471,8.678-8.678,8.678H173.559c-5.207,0-8.678-4.339-8.678-8.678  v-43.39h-52.068c-19.092,0-34.712,15.62-34.712,34.712V468.61c0,19.092,15.62,34.712,34.712,34.712h277.695  c19.092,0,34.712-15.62,34.712-34.712V95.458c0-19.092-15.62-34.712-34.712-34.712H338.441z"></path>
                                    <path id="pathbl" opacity="0.3" d="M355.797,303.729c0-57.275-46.861-104.136-104.136-104.136s-104.136,46.861-104.136,104.136  s46.861,104.136,104.136,104.136S355.797,361.003,355.797,303.729" fill="#17A2B8"></path>
                                    <path fill="#0B444D" d="M312.407,312.407H190.915c-5.207,0-8.678-3.471-8.678-8.678c0-5.207,3.471-8.678,8.678-8.678h121.492  c5.207,0,8.678,3.471,8.678,8.678C321.085,308.936,317.614,312.407,312.407,312.407z"></path>
</g>
                                    </svg>