<svg xmlns="http://www.w3.org/2000/svg" viewBox="0 0 196.288 196.288"><path d="M196.174 34.573a6.005 6.005 0 0 0-3.582-4.374l-18.719-7.785-7.785-18.719a6.002 6.002 0 0 0-9.783-1.939l-19.82 19.82a6.006 6.006 0 0 0-1.697 3.393l-1.587 11.096a71.926 71.926 0 0 0-4.255 1.312c-13.042-7.756-27.972-11.901-43.542-11.901-22.813 0-44.26 8.884-60.391 25.015S0 88.07 0 110.883s8.884 44.26 25.015 60.391 37.578 25.015 60.391 25.015 44.26-8.884 60.391-25.015 25.015-37.578 25.015-60.391c0-15.57-4.145-30.5-11.901-43.542.478-1.402.918-2.82 1.311-4.254l11.097-1.588a6 6 0 0 0 3.393-1.697l19.82-19.82a6.003 6.003 0 0 0 1.642-5.409zm-41.673 17.211a6 6 0 0 0-5.039 4.797c-2.472 11.509-8.196 22.009-16.558 30.371-11.064 11.064-25.933 17.428-41.469 17.902.474-15.537 6.838-30.405 17.902-41.469 8.388-8.388 18.928-14.122 30.48-16.582a6 6 0 0 0 4.69-5.019l1.878-13.135 12.067-12.066 5.292 12.726a6 6 0 0 0 3.236 3.236l12.726 5.292-12.067 12.067-13.138 1.88zm-74.963 59.337a6 6 0 0 0 5.63 5.63 73.4 73.4 0 0 0 4.394.132 73.383 73.383 0 0 0 23.656-3.938c-.484 6.674-3.308 12.884-8.087 17.664-5.269 5.269-12.273 8.17-19.725 8.17s-14.456-2.902-19.725-8.17c-5.269-5.269-8.17-12.273-8.17-19.725s2.902-14.456 8.17-19.725c4.781-4.781 10.992-7.604 17.668-8.088a73.337 73.337 0 0 0-3.811 28.05zm79.273-.238c0 19.607-7.635 38.041-21.5 51.905-13.864 13.865-32.298 21.5-51.905 21.5s-38.041-7.635-51.905-21.5C19.635 148.924 12 130.49 12 110.883s7.635-38.041 21.5-51.905c13.864-13.865 32.298-21.5 51.905-21.5 10.423 0 20.506 2.178 29.755 6.282a73.364 73.364 0 0 0-14.31 11.14 73.09 73.09 0 0 0-12.22 16.247c-11.263-.906-22.839 2.93-31.436 11.527-15.555 15.555-15.555 40.865 0 56.42 7.777 7.777 17.994 11.666 28.21 11.666s20.433-3.889 28.21-11.666c8.597-8.597 12.433-20.174 11.527-31.437a73.055 73.055 0 0 0 16.247-12.219 73.396 73.396 0 0 0 11.14-14.309c4.105 9.248 6.283 19.331 6.283 29.754z"/></svg>